<svg xmlns="http://www.w3.org/2000/svg" width="1200" height="630" viewBox="0 0 1200 630">
  <defs>
    <linearGradient id="bg" x1="0%" y1="0%" x2="100%" y2="100%">
      <stop offset="0%" style="stop-color:#081C1B"/>
      <stop offset="100%" style="stop-color:#0D2322"/>
    </linearGradient>
    <linearGradient id="accent" x1="0%" y1="0%" x2="100%" y2="0%">
      <stop offset="0%" style="stop-color:#2A7A6F"/>
      <stop offset="100%" style="stop-color:#D7720C"/>
    </linearGradient>
  </defs>

  <!-- Background -->
  <rect width="1200" height="630" fill="url(#bg)"/>

  <!-- Decorative circles top-right -->
  <circle cx="1100" cy="80" r="180" fill="#2A7A6F" opacity="0.06"/>
  <circle cx="1140" cy="120" r="110" fill="#D7720C" opacity="0.07"/>

  <!-- Decorative circles bottom-left -->
  <circle cx="80" cy="570" r="150" fill="#2A7A6F" opacity="0.06"/>

  <!-- Top accent bar -->
  <rect x="0" y="0" width="1200" height="4" fill="url(#accent)"/>

  <!-- Left border accent -->
  <rect x="80" y="80" width="4" height="200" fill="#D7720C" opacity="0.9" rx="2"/>

  <!-- Badge: NSDA Level 4 -->
  <rect x="108" y="88" width="160" height="32" rx="16" fill="#D7720C" opacity="0.15"/>
  <text x="188" y="109" font-family="Arial, sans-serif" font-size="13" font-weight="700" fill="#D7720C" text-anchor="middle" letter-spacing="1">NSDA LEVEL 4</text>

  <!-- Name -->
  <text x="108" y="200" font-family="Georgia, serif" font-size="88" font-weight="900" font-style="italic" fill="#EAF1EF" letter-spacing="-2">Suvadra</text>
  <text x="108" y="295" font-family="Georgia, serif" font-size="88" font-weight="900" fill="#2A7A6F" letter-spacing="-2">Kundu</text>

  <!-- Divider line -->
  <rect x="108" y="322" width="320" height="3" rx="2" fill="url(#accent)"/>

  <!-- Title -->
  <text x="108" y="370" font-family="Arial, sans-serif" font-size="26" fill="#9BB2AD" font-weight="400" letter-spacing="0.5">Client Coordinator &amp; Lead Trainer</text>

  <!-- Tags -->
  <rect x="108" y="400" width="145" height="34" rx="17" fill="#193433"/>
  <text x="180" y="422" font-family="Arial, sans-serif" font-size="13" fill="#9BB2AD" text-anchor="middle">8+ Years Exp.</text>

  <rect x="264" y="400" width="155" height="34" rx="17" fill="#193433"/>
  <text x="341" y="422" font-family="Arial, sans-serif" font-size="13" fill="#9BB2AD" text-anchor="middle">150+ Projects</text>

  <rect x="430" y="400" width="155" height="34" rx="17" fill="#193433"/>
  <text x="507" y="422" font-family="Arial, sans-serif" font-size="13" fill="#9BB2AD" text-anchor="middle">20+ Teams Trained</text>

  <!-- URL at bottom -->
  <text x="108" y="560" font-family="Arial, sans-serif" font-size="18" fill="#436661" letter-spacing="1">suvadra-portfolio.netlify.app</text>

  <!-- Right side: decorative grid dots -->
  <g opacity="0.2">
    <circle cx="760" cy="180" r="3" fill="#D7720C"/>
    <circle cx="800" cy="180" r="3" fill="#D7720C"/>
    <circle cx="840" cy="180" r="3" fill="#D7720C"/>
    <circle cx="880" cy="180" r="3" fill="#D7720C"/>
    <circle cx="920" cy="180" r="3" fill="#D7720C"/>
    <circle cx="760" cy="220" r="3" fill="#D7720C"/>
    <circle cx="800" cy="220" r="3" fill="#D7720C"/>
    <circle cx="840" cy="220" r="3" fill="#D7720C"/>
    <circle cx="880" cy="220" r="3" fill="#D7720C"/>
    <circle cx="920" cy="220" r="3" fill="#D7720C"/>
    <circle cx="760" cy="260" r="3" fill="#D7720C"/>
    <circle cx="800" cy="260" r="3" fill="#D7720C"/>
    <circle cx="840" cy="260" r="3" fill="#D7720C"/>
    <circle cx="880" cy="260" r="3" fill="#D7720C"/>
    <circle cx="920" cy="260" r="3" fill="#D7720C"/>
    <circle cx="760" cy="300" r="3" fill="#D7720C"/>
    <circle cx="800" cy="300" r="3" fill="#D7720C"/>
    <circle cx="840" cy="300" r="3" fill="#D7720C"/>
    <circle cx="880" cy="300" r="3" fill="#D7720C"/>
    <circle cx="920" cy="300" r="3" fill="#D7720C"/>
  </g>

  <!-- Right card -->
  <rect x="740" y="340" width="360" height="200" rx="24" fill="#112928" opacity="0.9"/>
  <text x="920" y="400" font-family="Arial, sans-serif" font-size="14" fill="#738F8A" text-anchor="middle" letter-spacing="2">CONTACT</text>
  <text x="920" y="435" font-family="Arial, sans-serif" font-size="16" fill="#EAF1EF" text-anchor="middle">mailboxofsuvra@gmail.com</text>
  <text x="920" y="468" font-family="Arial, sans-serif" font-size="16" fill="#EAF1EF" text-anchor="middle">+880 1327 274392</text>
  <text x="920" y="501" font-family="Arial, sans-serif" font-size="14" fill="#738F8A" text-anchor="middle">Boalmari, Faridpur, Bangladesh</text>

  <!-- Bottom accent bar -->
  <rect x="0" y="626" width="1200" height="4" fill="url(#accent)"/>
</svg>
